<svg width="276" height="27" viewBox="0 0 276 27" fill="none" xmlns="http://www.w3.org/2000/svg">
<path d="M274.5 11.0684V16.1963H255.732V11.0684H274.5ZM260.552 13.6323L258.877 23.9224L256.006 20.7089H275.629V26.4522H251.801L253.749 13.6323L251.801 0.8125H275.458V6.55579H256.006L258.877 3.34228L260.552 13.6323Z" fill="white"/>
<path d="M235.819 23.2729H232.81L242.69 0.8125H250.177L238.246 26.4522H230.212L218.281 0.8125H225.871L235.819 23.2729Z" fill="white"/>
<path d="M206.047 0.8125V23.3071L202.868 20.1619H222.046V26.4522H198.971V0.8125H206.047Z" fill="white"/>
<path d="M180.072 26.9993C177.041 26.9993 174.375 26.4409 172.073 25.3241C169.794 24.2074 168.016 22.6462 166.74 20.6406C165.486 18.635 164.859 16.299 164.859 13.6324C164.859 10.9659 165.486 8.62986 166.74 6.62427C168.016 4.61867 169.794 3.0575 172.073 1.94075C174.375 0.824001 177.041 0.265625 180.072 0.265625C183.126 0.265625 185.793 0.824001 188.072 1.94075C190.351 3.0575 192.129 4.61867 193.405 6.62427C194.681 8.62986 195.319 10.9659 195.319 13.6324C195.319 16.299 194.681 18.635 193.405 20.6406C192.129 22.6462 190.351 24.2074 188.072 25.3241C185.793 26.4409 183.126 26.9993 180.072 26.9993ZM180.072 20.6748C181.736 20.6748 183.172 20.3899 184.38 19.8202C185.588 19.2504 186.511 18.4413 187.149 17.3929C187.81 16.3446 188.14 15.0911 188.14 13.6324C188.14 12.1738 187.81 10.9203 187.149 9.87196C186.511 8.82358 185.588 8.01451 184.38 7.44474C183.172 6.87497 181.736 6.59008 180.072 6.59008C178.431 6.59008 177.007 6.87497 175.799 7.44474C174.591 8.01451 173.657 8.82358 172.996 9.87196C172.335 10.9203 172.004 12.1738 172.004 13.6324C172.004 15.0911 172.335 16.3446 172.996 17.3929C173.657 18.4413 174.591 19.2504 175.799 19.8202C177.007 20.3899 178.431 20.6748 180.072 20.6748Z" fill="white"/>
<path d="M136.016 18.0425H143.229C143.343 18.749 143.673 19.3643 144.22 19.8885C144.767 20.4127 145.497 20.823 146.408 21.1192C147.343 21.3927 148.437 21.5295 149.69 21.5295C151.422 21.5295 152.79 21.313 153.792 20.8799C154.795 20.4241 155.297 19.7632 155.297 18.8971C155.297 18.2362 155.012 17.7234 154.442 17.3587C153.872 16.9941 152.778 16.732 151.16 16.5725L146.374 16.128C142.841 15.809 140.278 15.0113 138.682 13.735C137.087 12.4359 136.289 10.6924 136.289 8.50451C136.289 6.72683 136.802 5.22263 137.828 3.99193C138.876 2.76122 140.334 1.83819 142.203 1.22284C144.095 0.584697 146.294 0.265625 148.801 0.265625C151.263 0.265625 153.451 0.618883 155.365 1.3254C157.279 2.00912 158.795 2.98913 159.912 4.26542C161.051 5.5417 161.667 7.02311 161.758 8.70963H154.579C154.488 8.09428 154.191 7.57009 153.69 7.13706C153.211 6.68124 152.55 6.33938 151.707 6.11147C150.864 5.86077 149.85 5.73543 148.665 5.73543C147.069 5.73543 145.804 5.95194 144.87 6.38496C143.935 6.7952 143.468 7.41055 143.468 8.23102C143.468 8.82358 143.742 9.30219 144.289 9.66684C144.858 10.0315 145.873 10.2822 147.331 10.4189L152.425 10.9317C154.864 11.1596 156.812 11.5585 158.271 12.1283C159.729 12.6752 160.789 13.4387 161.45 14.4187C162.111 15.3987 162.442 16.618 162.442 18.0767C162.442 19.8771 161.906 21.4497 160.835 22.7944C159.764 24.1162 158.259 25.1532 156.322 25.9053C154.385 26.6346 152.129 26.9993 149.553 26.9993C146.91 26.9993 144.574 26.6346 142.545 25.9053C140.54 25.1532 138.967 24.1048 137.828 22.7602C136.688 21.3927 136.084 19.8202 136.016 18.0425Z" fill="white"/>
<path d="M109.797 26.9993C106.766 26.9993 104.099 26.4409 101.797 25.3241C99.5182 24.2074 97.7405 22.6462 96.4642 20.6406C95.2107 18.635 94.584 16.299 94.584 13.6324C94.584 10.9659 95.2107 8.62986 96.4642 6.62427C97.7405 4.61867 99.5182 3.0575 101.797 1.94075C104.099 0.824001 106.766 0.265625 109.797 0.265625C112.851 0.265625 115.517 0.824001 117.796 1.94075C120.076 3.0575 121.853 4.61867 123.13 6.62427C124.406 8.62986 125.044 10.9659 125.044 13.6324C125.044 16.299 124.406 18.635 123.13 20.6406C121.853 22.6462 120.076 24.2074 117.796 25.3241C115.517 26.4409 112.851 26.9993 109.797 26.9993ZM109.797 20.6748C111.461 20.6748 112.896 20.3899 114.104 19.8202C115.312 19.2504 116.235 18.4413 116.873 17.3929C117.534 16.3446 117.865 15.0911 117.865 13.6324C117.865 12.1738 117.534 10.9203 116.873 9.87196C116.235 8.82358 115.312 8.01451 114.104 7.44474C112.896 6.87497 111.461 6.59008 109.797 6.59008C108.156 6.59008 106.732 6.87497 105.524 7.44474C104.316 8.01451 103.381 8.82358 102.72 9.87196C102.059 10.9203 101.729 12.1738 101.729 13.6324C101.729 15.0911 102.059 16.3446 102.72 17.3929C103.381 18.4413 104.316 19.2504 105.524 19.8202C106.732 20.3899 108.156 20.6748 109.797 20.6748Z" fill="white"/>
<path d="M71.8242 12.0256H81.157C82.2966 12.0256 83.1854 11.7635 83.8236 11.2393C84.4617 10.7151 84.7808 9.98581 84.7808 9.05139C84.7808 8.09417 84.4617 7.36487 83.8236 6.86347C83.1854 6.33928 82.2966 6.07718 81.157 6.07718H70.8328L74.0121 2.69274V26.4522H66.9355V0.8125H82.1484C84.1084 0.8125 85.8177 1.16576 87.2764 1.87227C88.735 2.556 89.8745 3.51322 90.695 4.74392C91.5155 5.95183 91.9257 7.38766 91.9257 9.05139C91.9257 10.6695 91.5155 12.094 90.695 13.3247C89.8745 14.5554 88.735 15.5126 87.2764 16.1963C85.8177 16.88 84.1084 17.2219 82.1484 17.2219H71.8242V12.0256ZM75.653 14.4528H83.6184L92.8145 26.4522H84.6098L75.653 14.4528Z" fill="white"/>
<path d="M60.2377 15.3418C60.1693 16.8915 59.8502 18.3729 59.2805 19.786C58.7335 21.1762 57.9244 22.4183 56.8532 23.5123C55.8049 24.6062 54.483 25.4609 52.8876 26.0762C51.3151 26.6916 49.4804 26.9993 47.3836 26.9993C45.3781 26.9993 43.4978 26.7144 41.7429 26.1446C39.988 25.5521 38.4382 24.686 37.0936 23.5465C35.7717 22.4069 34.7347 21.0053 33.9826 19.3416C33.2533 17.6778 32.8887 15.7748 32.8887 13.6324C32.8887 11.4901 33.2647 9.58708 34.0168 7.92334C34.7689 6.25961 35.8173 4.85798 37.162 3.71844C38.5294 2.57889 40.102 1.72424 41.8797 1.15447C43.6801 0.561906 45.6401 0.265625 47.7597 0.265625C50.5858 0.265625 53.0244 0.698651 55.0756 1.5647C57.1267 2.43075 58.7791 3.61588 60.0326 5.12007C61.2861 6.62427 62.0951 8.36777 62.4598 10.3506H55.3149C55.0869 9.48452 54.6197 8.74382 53.9132 8.12846C53.2295 7.49032 52.3634 7.01171 51.3151 6.69264C50.2895 6.35078 49.1157 6.17985 47.7939 6.17985C46.1985 6.17985 44.8197 6.46473 43.6573 7.0345C42.495 7.58148 41.5948 8.41335 40.9566 9.5301C40.3185 10.6241 39.9994 11.9915 39.9994 13.6324C39.9994 15.2962 40.3413 16.6978 41.025 17.8374C41.7087 18.9769 42.6773 19.8316 43.9308 20.4013C45.2071 20.9711 46.6999 21.256 48.4092 21.256C50.073 21.256 51.543 21.0281 52.8193 20.5723C54.0955 20.0937 55.1097 19.3985 55.8618 18.4869C56.6367 17.5753 57.0811 16.4813 57.1951 15.205L60.2377 15.3418ZM49.093 18.1792V13.188H62.6991V26.4523H57.6737L56.6823 16.299L58.0156 18.1792H49.093Z" fill="white"/>
<path d="M7.7934 21.5294V15.8203H25.4677V21.5294H7.7934ZM21.4337 0.8125L33.0912 26.4522H25.5361L15.7588 3.82089H17.81L7.99852 26.4522H0.443359L12.1009 0.8125H21.4337Z" fill="white"/>
</svg>
