<svg width="46" height="29" viewBox="0 0 46 29" fill="none" xmlns="http://www.w3.org/2000/svg">
<path d="M38.7709 24.2109L0.371094 28.9954H38.7709H45.2729V24.2109H38.7709Z" fill="#8DCD43"/>
<path d="M36.5063 15.0928L0.371091 28.9953L37.1171 19.4524C38.1256 19.1905 39.1633 19.0579 40.2052 19.0579H45.1379V14.2734H40.9178C39.4095 14.2734 37.914 14.5512 36.5063 15.0928Z" fill="#8DCD43"/>
<path d="M35.6727 7.1581L0.371091 28.9978L36.0722 11.374C37.7635 10.5391 39.6244 10.1048 41.5105 10.1048H45.1452V5.32031H42.1364C39.8529 5.32031 37.6146 5.95672 35.6727 7.1581Z" fill="#8DCD43"/>
<path d="M7.36566 6.40776C11.7073 0.151187 21.8922 0.59671 26.1078 0.707651C25.4001 1.62818 21.9153 4.09589 19.1457 11.4794C15.8992 20.1341 5.70709 20.5167 0.371094 28.9957C3.23093 22.1423 1.80273 14.4243 7.36566 6.40776Z" fill="#8DCD43"/>
</svg>
