<svg width="25" height="25" viewBox="0 0 25 25" fill="none" xmlns="http://www.w3.org/2000/svg">
<g clip-path="url(#clip0_1949_1822)">
<path fill-rule="evenodd" clip-rule="evenodd" d="M20.5696 4.77372C20.8167 4.66971 21.0872 4.63383 21.3529 4.66983C21.6186 4.70583 21.8698 4.81238 22.0803 4.9784C22.2908 5.14442 22.453 5.36383 22.55 5.6138C22.647 5.86377 22.6751 6.13516 22.6316 6.39972L20.3636 20.1567C20.1436 21.4837 18.6876 22.2447 17.4706 21.5837C16.4526 21.0307 14.9406 20.1787 13.5806 19.2897C12.9006 18.8447 10.8176 17.4197 11.0736 16.4057C11.2936 15.5387 14.7936 12.2807 16.7936 10.3437C17.5786 9.58272 17.2206 9.14372 16.2936 9.84372C13.9916 11.5817 10.2956 14.2247 9.07362 14.9687C7.99562 15.6247 7.43362 15.7367 6.76162 15.6247C5.53562 15.4207 4.39862 15.1047 3.47062 14.7197C2.21662 14.1997 2.27762 12.4757 3.46962 11.9737L20.5696 4.77372Z" fill="#8DCD43"/>
</g>
<defs>
<clipPath id="clip0_1949_1822">
<rect width="24" height="24" fill="white" transform="translate(0.792969 0.34375)"/>
</clipPath>
</defs>
</svg>
